<svg id="Layer_1" height="512" viewBox="0 0 128 128" width="512" xmlns="http://www.w3.org/2000/svg" data-name="Layer 1"><path d="m11.8 7.378a3.124 3.124 0 0 0 -4.382.036 3.126 3.126 0 0 0 -.038 4.386l105.014 108.529a3.843 3.843 0 0 0 5.483.041l1.246-1.249 1.249-1.246a3.843 3.843 0 0 0 -.042-5.483z" fill="#d4945e"/><path d="m120.367 117.876-1.24 1.25-1.25 1.24a3.828 3.828 0 0 1 -5.48-.04l-19.47-20.126 7.27-7.27 20.13 19.47a3.828 3.828 0 0 1 .04 5.476z" fill="#ad794d"/><path d="m15.117 10.586-4.53 4.53-3.21-3.316a3.126 3.126 0 0 1 4.42-4.42z" fill="#ad794d"/><circle cx="39.555" cy="56.256" fill="#546a79" r="19.904" transform="matrix(.707 -.707 .707 .707 -28.193 44.447)"/><path d="m52.271 63.626a1.75 1.75 0 0 1 -1.6-2.459 12.136 12.136 0 0 0 -1.225-11.967 1.75 1.75 0 0 1 2.846-2.037 15.636 15.636 0 0 1 1.58 15.421 1.751 1.751 0 0 1 -1.601 1.042z" fill="#394852"/><circle cx="35.222" cy="57.297" fill="#e6e7e8" r="9.114" transform="matrix(.707 -.707 .707 .707 -30.199 41.688)"/></svg>