<svg id="Layer_3" enable-background="new 0 0 64 64" height="512" viewBox="0 0 64 64" width="512" xmlns="http://www.w3.org/2000/svg"><g><path d="m16 2h32v20h-32z" fill="#8a8275"/><path d="m16 2v15.874c.984.08 1.984.126 3 .126 13.313 0 24.192-7.077 24.953-16z" fill="#a19b91"/><path d="m44 32h10v10h-10z" fill="#b4e05d"/><path d="m44 40.819c4.564-.834 8-4.465 8-8.819h-8z" fill="#c3e67d"/><path d="m36 52h10v10h-10z" fill="#b4e05d"/><path d="m36 60.819c4.564-.834 8-4.465 8-8.819h-8z" fill="#c3e67d"/><path d="m18 52h10v10h-10z" fill="#77ceee"/><path d="m18 60.819c4.564-.834 8-4.465 8-8.819h-8z" fill="#92d8f1"/><path d="m2 52h10v10h-10z" fill="#77ceee"/><path d="m2 60.819c4.564-.834 8-4.465 8-8.819h-8z" fill="#92d8f1"/><path d="m10 32h10v10h-10z" fill="#77ceee"/><path d="m10 40.819c4.564-.834 8-4.465 8-8.819h-8z" fill="#92d8f1"/><path d="m52 52h10v10h-10z" fill="#b4e05d"/><path d="m52 60.819c4.564-.834 8-4.465 8-8.819h-8z" fill="#c3e67d"/><g><g fill="#fff"><path d="m21.733 16.964c.433.117.893-.063 1.125-.449l2.142-3.572 2.143 3.571c.184.307.512.486.857.486.088 0 .178-.012.267-.036.433-.12.733-.515.733-.964v-9h-2v5.39l-1.143-1.904c-.361-.602-1.354-.602-1.715 0l-1.142 1.904v-5.39h-2v9c0 .449.3.844.733.964z"/><path d="m31 7h2v10h-2z"/><path d="m37 11 4.2 5.6c.192.257.491.4.8.4.105 0 .212-.017.316-.052.409-.136.684-.517.684-.948v-9h-2v6l-4.2-5.6c-.258-.345-.708-.486-1.116-.349-.409.137-.684.518-.684.949v9h2z"/></g><path d="m23 45h-7v-3h-2v3h-7c-.552 0-1 .447-1 1v6h2v-5h14v5h2v-6c0-.553-.448-1-1-1z" fill="#a19b91"/><path d="m57 45h-7v-3h-2v3h-7c-.552 0-1 .447-1 1v6h2v-5h14v5h2v-6c0-.553-.448-1-1-1z" fill="#a19b91"/><path d="m16 29h32v3h2v-4c0-.553-.448-1-1-1h-16v-5h-2v5h-16c-.552 0-1 .447-1 1v4h2z" fill="#a19b91"/></g></g></svg>