<svg height="512pt" viewBox="0 -119 512.001 512" width="512pt" xmlns="http://www.w3.org/2000/svg"><path d="m274.980469 137.492188c0 75.933593-61.554688 137.492187-137.488281 137.492187-75.933594 0-137.492188-61.558594-137.492188-137.492187 0-75.933594 61.558594-137.492188 137.492188-137.492188 75.933593 0 137.488281 61.558594 137.488281 137.492188zm0 0" fill="#e1ebef"/><path d="m140.90625.0429688c48.703125 21.1562502 82.773438 69.6757812 82.773438 126.1601562 0 75.933594-61.558594 137.492187-137.492188 137.492187-1.140625 0-2.28125-.015624-3.414062-.042968 16.769531 7.28125 35.269531 11.332031 54.71875 11.332031 75.933593 0 137.488281-61.558594 137.488281-137.492187 0-74.792969-59.71875-135.636719-134.074219-137.4492192zm0 0" fill="#c4d3d6"/><path d="m0 137.492188c0 35.59375 13.527344 68.035156 35.722656 92.449218h203.539063c22.191406-24.414062 35.71875-56.851562 35.71875-92.449218 0-35.597657-13.527344-68.035157-35.71875-92.453126h-203.539063c-22.195312 24.417969-35.722656 56.855469-35.722656 92.453126zm0 0" fill="#ffd432"/><path d="m197.152344 45.039062c16.671875 22.75 26.527344 50.800782 26.527344 81.164063 0 41.40625-18.304688 78.53125-47.257813 103.738281h62.835937c22.195313-24.417968 35.722657-56.855468 35.722657-92.449218 0-35.597657-13.527344-68.035157-35.722657-92.453126zm0 0" fill="#f4ac03"/><path d="m198.027344 137.492188c0 33.433593-27.101563 60.535156-60.535156 60.535156-33.433594 0-60.539063-27.101563-60.539063-60.535156 0-33.433594 27.105469-60.539063 60.539063-60.539063 33.433593 0 60.535156 27.105469 60.535156 60.539063zm0 0" fill="#e1ebef"/><path d="m504.816406 170.324219-184.902344-3.890625c-5.582031-.117188-10.046874-4.675782-10.046874-10.257813v-37.367187c0-5.582032 4.464843-10.140625 10.046874-10.257813l184.902344-3.890625c3.96875 0 7.183594 3.214844 7.183594 7.179688v51.304687c0 3.964844-3.214844 7.179688-7.183594 7.179688zm0 0" fill="#f0a65f"/><path d="m504.816406 104.65625-6.15625.132812v32.492188c0 5.75-4.71875 10.375-10.464844 10.257812l-178.328124-3.609374v12.238281c0 5.585937 4.46875 10.144531 10.054687 10.257812l184.75 3.75c4.023437.082031 7.328125-3.15625 7.328125-7.179687v-51.15625c0-3.964844-3.214844-7.183594-7.183594-7.183594zm0 0" fill="#e28540"/><path d="m398.109375 106.90625-78.199219 1.644531c-5.578125.117188-10.042968 4.675781-10.042968 10.257813v37.363281c0 5.585937 4.460937 10.144531 10.042968 10.257813l78.199219 1.648437zm0 0" fill="#757574"/><path d="m381.691406 107.25v27.972656c0 5.75-4.726562 10.378906-10.476562 10.257813l-61.347656-1.292969v11.988281c0 5.582031 4.464843 10.140625 10.046874 10.257813l78.195313 1.644531v-61.171875zm0 0" fill="#565656"/><path d="m160.578125 121.585938c0-9.898438-8.054687-17.953126-17.957031-17.953126h-10.261719c-9.898437 0-17.957031 8.054688-17.957031 17.953126v5.132812c0 9.898438 8.058594 17.953125 17.957031 17.953125h12.828125v8.722656c0 1.414063-1.152344 2.566407-2.566406 2.566407h-20.519532c-4.25 0-7.695312 3.445312-7.695312 7.695312s3.445312 7.691406 7.695312 7.691406h20.519532c9.902344 0 17.957031-8.054687 17.957031-17.953125v-15.390625c0-.175781-.015625-.34375-.027344-.515625.011719-.167969.027344-.339843.027344-.511719zm-30.78125 5.132812v-5.132812c0-1.414063 1.148437-2.5625 2.5625-2.5625h10.261719c1.414062 0 2.566406 1.148437 2.566406 2.5625v7.695312h-12.828125c-1.414063.003906-2.5625-1.148438-2.5625-2.5625zm0 0" fill="#565656"/><g fill="#757574"><path d="m300.640625 73.367188c-2.746094 0-5.402344-1.476563-6.792969-4.066407l-15.390625-28.726562c-2.007812-3.746094-.59375-8.410157 3.148438-10.417969 3.75-2.003906 8.414062-.597656 10.417969 3.148438l15.390624 28.730468c2.007813 3.746094.597657 8.410156-3.148437 10.417969-1.15625.617187-2.398437.914063-3.625.914063zm0 0"/><path d="m325.25 73.367188c-1.226562 0-2.46875-.296876-3.625-.914063-3.746094-2.007813-5.15625-6.671875-3.148438-10.417969l15.390626-28.730468c2.003906-3.746094 6.667968-5.15625 10.417968-3.148438 3.742188 2.007812 5.15625 6.671875 3.148438 10.417969l-15.390625 28.726562c-1.390625 2.589844-4.046875 4.066407-6.792969 4.066407zm0 0"/><path d="m285.234375 245.742188c-1.226563 0-2.46875-.296876-3.625-.914063-3.746094-2.007813-5.15625-6.671875-3.148437-10.417969l15.390624-28.730468c2.007813-3.746094 6.667969-5.152344 10.417969-3.148438 3.742188 2.007812 5.15625 6.671875 3.148438 10.417969l-15.390625 28.730469c-1.390625 2.589843-4.046875 4.0625-6.792969 4.0625zm0 0"/><path d="m340.65625 245.742188c-2.746094 0-5.402344-1.476563-6.792969-4.0625l-15.390625-28.730469c-2.003906-3.746094-.59375-8.410157 3.148438-10.417969 3.75-2.003906 8.414062-.597656 10.417968 3.148438l15.394532 28.730468c2.003906 3.746094.59375 8.410156-3.152344 10.417969-1.15625.621094-2.398438.914063-3.625.914063zm0 0"/></g></svg>