<svg id="Layer_1" enable-background="new 0 0 256 256" height="512" viewBox="0 0 256 256" width="512" xmlns="http://www.w3.org/2000/svg"><g><g><path d="m231.845 130.155h-8.49c.785 3.129 1.349 6.345 1.671 9.633h6.819c3.597 0 6.523 2.926 6.523 6.523 0 3.596-2.926 6.522-6.523 6.522h-6.819c-.322 3.288-.886 6.504-1.671 9.633h8.49c8.922 0 16.155-7.233 16.155-16.155 0-8.923-7.233-16.156-16.155-16.156z" fill="#a4c9ff"/></g><g><path d="m231.845 164.466h-8.49c-.616 0-1.198-.284-1.577-.77s-.513-1.119-.362-1.717c.769-3.064 1.313-6.207 1.62-9.341.1-1.024.961-1.806 1.99-1.806h6.819c2.494 0 4.522-2.028 4.522-4.521 0-2.494-2.028-4.523-4.522-4.523h-6.819c-1.029 0-1.891-.781-1.99-1.806-.307-3.133-.852-6.276-1.62-9.341-.15-.598-.017-1.231.362-1.717s.961-.77 1.577-.77h8.49c10.011 0 18.155 8.145 18.155 18.156s-8.145 18.156-18.155 18.156zm-5.976-4h5.976c7.806 0 14.155-6.35 14.155-14.155 0-7.806-6.35-14.156-14.155-14.156h-5.976c.394 1.864.71 3.748.945 5.633h5.03c4.699 0 8.522 3.823 8.522 8.523 0 4.699-3.823 8.521-8.522 8.521h-5.03c-.235 1.887-.551 3.77-.945 5.634z" fill="#3762cc"/></g><g><path d="m159.12 80.082h-146.303c-2.66 0-4.817 2.156-4.817 4.817v38.395c0 2.26 1.571 4.216 3.777 4.703l81.125 17.928c.208-36.398 29.771-65.843 66.218-65.843z" fill="#4671c6"/></g><g><path d="m58.775 80.082v8.128c0 1.995 1.617 3.612 3.612 3.612h8.73c1.995 0 3.612-1.617 3.612-3.612v-8.128z" fill="#a4c9ff"/></g><g><path d="m66.753 43.462c-2.228 0-4.039 1.812-4.039 4.039v18.234c0 2.227 1.812 4.039 4.039 4.039s4.039-1.812 4.039-4.039v-18.235c0-2.227-1.812-4.038-4.039-4.038z" fill="#f9a7a7"/></g><g><path d="m96.289 53.393c-.763-.763-1.776-1.183-2.855-1.183s-2.093.42-2.856 1.183l-12.894 12.893c-1.574 1.575-1.574 4.137 0 5.712.763.763 1.776 1.183 2.855 1.183s2.093-.42 2.856-1.183l12.894-12.894c1.574-1.574 1.574-4.136 0-5.711z" fill="#f9a7a7"/></g><g><path d="m42.928 53.393c-.764-.763-1.777-1.183-2.856-1.183s-2.093.42-2.855 1.183c-1.574 1.575-1.574 4.137 0 5.712l12.894 12.893c.763.763 1.776 1.183 2.855 1.183s2.094-.42 2.856-1.183c1.574-1.575 1.574-4.137 0-5.712z" fill="#f9a7a7"/></g><g><circle cx="159.12" cy="146.31" fill="#4671c6" r="66.228"/></g><g><circle cx="159.12" cy="146.31" fill="#e0ebfc" r="48.166"/></g><g><circle cx="159.12" cy="146.31" fill="#a4c9ff" r="38.533"/></g><g><path d="m92.902 147.925c-.144 0-.289-.016-.432-.047l-81.124-17.928c-3.148-.695-5.346-3.432-5.346-6.656v-38.395c0-3.759 3.058-6.817 6.816-6.817h146.304c1.104 0 2 .896 2 2s-.896 2-2 2c-35.208 0-64.017 28.645-64.218 63.854-.003.604-.28 1.175-.752 1.552-.358.286-.798.437-1.248.437zm-80.086-65.843c-1.553 0-2.816 1.264-2.816 2.817v38.395c0 1.332.908 2.463 2.208 2.75l78.752 17.404c1.178-28.276 19.725-52.2 45.176-61.366z" fill="#3762cc"/></g><g><path d="m71.117 93.823h-8.73c-3.095 0-5.612-2.518-5.612-5.612v-8.128c0-1.104.896-2 2-2h15.955c1.104 0 2 .896 2 2v8.128c0 3.094-2.518 5.612-5.613 5.612zm-10.342-11.74v6.128c0 .889.723 1.612 1.612 1.612h8.73c.889 0 1.613-.723 1.613-1.612v-6.128z" fill="#3762cc"/></g><g><path d="m159.12 214.539c-37.621 0-68.228-30.607-68.228-68.228s30.608-68.228 68.228-68.228c37.621 0 68.229 30.607 68.229 68.228s-30.608 68.228-68.229 68.228zm0-132.456c-35.415 0-64.228 28.813-64.228 64.228s28.813 64.228 64.228 64.228c35.416 0 64.229-28.813 64.229-64.228s-28.813-64.228-64.229-64.228z" fill="#3762cc"/></g><g><path d="m159.12 196.476c-27.662 0-50.166-22.504-50.166-50.166s22.504-50.166 50.166-50.166 50.166 22.504 50.166 50.166-22.504 50.166-50.166 50.166zm0-96.331c-25.456 0-46.166 20.71-46.166 46.166s20.71 46.166 46.166 46.166 46.166-20.71 46.166-46.166c0-25.457-20.71-46.166-46.166-46.166z" fill="#3762cc"/></g><g><path d="m159.12 186.843c-22.35 0-40.533-18.183-40.533-40.533s18.183-40.533 40.533-40.533 40.532 18.183 40.532 40.533-18.182 40.533-40.532 40.533zm0-77.065c-20.145 0-36.533 16.389-36.533 36.533s16.388 36.533 36.533 36.533c20.144 0 36.532-16.389 36.532-36.533s-16.388-36.533-36.532-36.533z" fill="#3762cc"/></g></g></svg>