<svg id="icons" enable-background="new 0 0 64 64" height="512" viewBox="0 0 64 64" width="512" xmlns="http://www.w3.org/2000/svg"><g><g fill="#545c66"><path d="m13.506 55.498c-.553 0-1-.447-1-1v-3c0-.553.447-1 1-1s1 .447 1 1v3c0 .553-.447 1-1 1z"/><path d="m25.502 52.498h-11.996c-.553 0-1-.447-1-1s.447-1 1-1h11.996c.553 0 1 .447 1 1s-.447 1-1 1z"/><path d="m19.508 40.488c-.553 0-1-.447-1-1v-3c0-.553.447-1 1-1s1 .447 1 1v3c0 .553-.447 1-1 1z"/><path d="m44.492 40.488c-.553 0-1-.447-1-1v-3c0-.553.447-1 1-1s1 .447 1 1v3c0 .553-.447 1-1 1z"/><path d="m44.492 37.488h-24.984c-.553 0-1-.447-1-1s.447-1 1-1h24.984c.553 0 1 .447 1 1s-.447 1-1 1z"/><path d="m25.502 55.498c-.553 0-1-.447-1-1v-3c0-.553.447-1 1-1s1 .447 1 1v3c0 .553-.447 1-1 1z"/><path d="m19.504 52.488c-.553 0-1-.447-1-1v-3c0-.553.447-1 1-1s1 .447 1 1v3c0 .553-.447 1-1 1z"/><path d="m32 37.488c-.553 0-1-.447-1-1v-2.988c0-.553.447-1 1-1s1 .447 1 1v2.988c0 .553-.447 1-1 1z"/><path d="m38.494 55.498c-.553 0-1-.447-1-1v-3c0-.553.447-1 1-1s1 .447 1 1v3c0 .553-.447 1-1 1z"/><path d="m50.49 52.498h-11.996c-.553 0-1-.447-1-1s.447-1 1-1h11.996c.553 0 1 .447 1 1s-.447 1-1 1z"/><path d="m50.49 55.498c-.553 0-1-.447-1-1v-3c0-.553.447-1 1-1s1 .447 1 1v3c0 .553-.447 1-1 1z"/><path d="m44.492 52.488c-.553 0-1-.447-1-1v-3c0-.553.447-1 1-1s1 .447 1 1v3c0 .553-.447 1-1 1z"/></g><path d="m32 5.5c1.66 0 3 1.35 3 3 0 1.66-1.34 3-3 3s-3-1.34-3-3c0-1.65 1.34-3 3-3z" fill="#f6bb42"/><path d="m26 30.5v-8h4.5 3 4.5v8z" fill="#656d78"/><path d="m41 2.5v6c0 4.459-3.24 8.16-7.5 8.879-.49.08-.99.121-1.5.121s-1.01-.041-1.5-.121c-4.26-.719-7.5-4.42-7.5-8.879v-6-1h18zm-6 6c0-1.65-1.34-3-3-3s-3 1.35-3 3c0 1.66 1.34 3 3 3s3-1.34 3-3z" fill="#ffce54"/><path d="m33.5 17.379v5.121h-3v-5.121c.49.08.99.121 1.5.121s1.01-.041 1.5-.121z" fill="#f6bb42"/><path d="m19.5 45.49c1.3 0 2.36.99 2.49 2.25-.71.479-1.57.75-2.49.75s-1.77-.281-2.48-.75c.12-1.26 1.19-2.25 2.48-2.25z" fill="#5d9cec"/><path d="m18 43.99c0 .83.68 1.5 1.5 1.5-1.29 0-2.36.99-2.48 2.25-1.22-.801-2.02-2.181-2.02-3.75 0-2.48 2.02-4.5 4.5-4.5h.01c2.49.01 4.49 2.02 4.49 4.5 0 1.568-.8 2.949-2.01 3.75-.13-1.26-1.19-2.25-2.49-2.25.83 0 1.5-.67 1.5-1.5 0-.82-.67-1.5-1.5-1.5-.82 0-1.5.68-1.5 1.5z" fill="#656d78"/><path d="m44.49 45.49c1.3 0 2.359.99 2.49 2.25-.711.479-1.57.75-2.49.75-.91 0-1.76-.271-2.48-.75.12-1.26 1.19-2.25 2.48-2.25z" fill="#ed5565"/><path d="m44.49 39.49c2.49 0 4.5 2.02 4.5 4.5 0 1.568-.8 2.949-2.01 3.75-.131-1.26-1.19-2.25-2.49-2.25.83 0 1.5-.67 1.5-1.5 0-.82-.67-1.5-1.5-1.5s-1.5.68-1.5 1.5c0 .83.67 1.5 1.5 1.5-1.29 0-2.36.99-2.48 2.25-1.21-.801-2.02-2.182-2.02-3.75 0-2.48 2.02-4.5 4.5-4.5z" fill="#656d78"/><path d="m50.49 54.5c2.49 0 4.5 2.02 4.5 4.5 0 1.57-.8 2.949-2.01 3.75-.131-1.26-1.19-2.25-2.49-2.25.83 0 1.5-.67 1.5-1.5s-.67-1.5-1.5-1.5c-.82 0-1.5.67-1.5 1.5s.68 1.5 1.5 1.5c-1.29 0-2.36.99-2.48 2.25-1.21-.801-2.02-2.18-2.02-3.75 0-2.48 2.02-4.5 4.5-4.5z" fill="#656d78"/><path d="m50.49 60.5c1.3 0 2.359.99 2.49 2.25-.711.48-1.57.75-2.49.75-.91 0-1.76-.27-2.48-.75.12-1.26 1.19-2.25 2.48-2.25z" fill="#ed5565"/><path d="m38.49 63.5c-.91 0-1.76-.27-2.48-.75.12-1.26 1.19-2.25 2.48-2.25 1.3 0 2.359.99 2.49 2.25-.71.48-1.57.75-2.49.75z" fill="#ffce54"/><path d="m36.99 59c0 .83.68 1.5 1.5 1.5-1.29 0-2.36.99-2.48 2.25-1.21-.801-2.02-2.18-2.02-3.75 0-2.48 2.02-4.5 4.5-4.5 2.49 0 4.5 2.02 4.5 4.5 0 1.57-.8 2.949-2.01 3.75-.131-1.26-1.19-2.25-2.49-2.25.83 0 1.5-.67 1.5-1.5s-.67-1.5-1.5-1.5c-.82 0-1.5.67-1.5 1.5z" fill="#656d78"/><path d="m25.51 60.5c1.29 0 2.351.99 2.48 2.25-.71.48-1.57.75-2.48.75-.92 0-1.779-.281-2.49-.75.12-1.26 1.19-2.25 2.49-2.25z" fill="#ac92ec"/><path d="m25.51 54.5c2.48 0 4.5 2.02 4.5 4.5 0 1.57-.81 2.949-2.02 3.75-.13-1.26-1.19-2.25-2.48-2.25.82 0 1.5-.67 1.5-1.5s-.68-1.5-1.5-1.5c-.83 0-1.5.67-1.5 1.5s.67 1.5 1.5 1.5c-1.3 0-2.37.99-2.49 2.25-1.21-.801-2.01-2.18-2.01-3.75 0-2.48 2-4.49 4.49-4.5z" fill="#656d78"/><path d="m13.51 54.5c2.48 0 4.5 2.02 4.5 4.5 0 1.57-.81 2.949-2.02 3.75-.13-1.26-1.19-2.25-2.48-2.25.82 0 1.5-.67 1.5-1.5s-.68-1.5-1.5-1.5c-.83 0-1.5.67-1.5 1.5s.67 1.5 1.5 1.5c-1.3 0-2.37.99-2.49 2.25-1.21-.801-2.01-2.18-2.01-3.75 0-2.48 2.01-4.5 4.5-4.5z" fill="#656d78"/><path d="m13.51 63.5c-.92 0-1.779-.281-2.49-.75.12-1.26 1.19-2.25 2.49-2.25 1.29 0 2.351.99 2.48 2.25-.71.48-1.57.75-2.48.75z" fill="#5d9cec"/><path d="m38.002 31.498h-12.002c-.553 0-1-.447-1-1v-8.002c0-.553.447-1 1-1h12.002c.553 0 1 .447 1 1v8.002c0 .553-.447 1-1 1zm-11.002-2h10.002v-6.002h-10.002z" fill="#656d78"/><path d="m41 9.498c-.553 0-1-.447-1-1s.447-1 1-1c1.654 0 3-1.346 3-3 0-.553.447-1 1-1s1 .447 1 1c0 2.758-2.243 5-5 5z" fill="#f6bb42"/><path d="m45 5.498c-.553 0-1-.447-1-1v-1.996c0-.553.447-1 1-1s1 .447 1 1v1.996c0 .553-.447 1-1 1z" fill="#f6bb42"/><path d="m45 3.502h-4c-.553 0-1-.447-1-1s.447-1 1-1h4c.553 0 1 .447 1 1s-.447 1-1 1z" fill="#f6bb42"/><path d="m23 9.498c-2.757 0-5-2.242-5-5 0-.553.447-1 1-1s1 .447 1 1c0 1.654 1.346 3 3 3 .553 0 1 .447 1 1s-.447 1-1 1z" fill="#f6bb42"/><path d="m19 5.498c-.553 0-1-.447-1-1v-1.996c0-.553.447-1 1-1s1 .447 1 1v1.996c0 .553-.447 1-1 1z" fill="#f6bb42"/><path d="m23 3.502h-4c-.553 0-1-.447-1-1s.447-1 1-1h4c.553 0 1 .447 1 1s-.447 1-1 1z" fill="#f6bb42"/><path d="m35.002 27.498h-6.002c-.553 0-1-.447-1-1s.447-1 1-1h6.002c.553 0 1 .447 1 1s-.447 1-1 1z" fill="#ffce54"/><path d="m32.002 12.502c-2.206 0-4-1.795-4-4 0-2.207 1.794-4 4-4s4 1.793 4 4c0 2.205-1.794 4-4 4zm0-6c-1.103 0-2 .896-2 2 0 1.102.897 2 2 2s2-.898 2-2c0-1.104-.898-2-2-2z" fill="#f6bb42"/><path d="m32 18.498c-5.514 0-10-4.486-10-10 0-.553.447-1 1-1s1 .447 1 1c0 4.412 3.589 8 8 8s8-3.588 8-8c0-.553.447-1 1-1s1 .447 1 1c0 5.514-4.486 10-10 10z" fill="#ffce54"/><path d="m23 9.498c-.553 0-1-.447-1-1v-6.998c0-.553.447-1 1-1s1 .447 1 1v6.998c0 .553-.447 1-1 1z" fill="#ffce54"/><path d="m41 2.5h-18c-.553 0-1-.447-1-1s.447-1 1-1h18c.553 0 1 .447 1 1s-.447 1-1 1z" fill="#ffce54"/><path d="m41 9.498c-.553 0-1-.447-1-1v-6.998c0-.553.447-1 1-1s1 .447 1 1v6.998c0 .553-.447 1-1 1z" fill="#ffce54"/><path d="m19.5 42.49c1.106 0 2 .906 2 2 0 1.105-.894 2-2 2-1.094 0-2-.895-2-2 0-1.094.906-2 2-2z" fill="#eac6bb"/><path d="m44.49 42.49c1.106 0 2 .906 2 2 0 1.105-.894 2-2 2s-2-.895-2-2c0-1.094.894-2 2-2z" fill="#eac6bb"/><path d="m50.49 57.5c1.106 0 2 .893 2 2 0 1.105-.894 2-2 2-1.094 0-2-.895-2-2 0-1.107.906-2 2-2z" fill="#eac6bb"/><path d="m38.49 57.5c1.106 0 2 .893 2 2 0 1.105-.894 2-2 2-1.094 0-2-.895-2-2 0-1.107.906-2 2-2z" fill="#eac6bb"/><path d="m25.5 57.5c1.094 0 2 .893 2 2 0 1.105-.906 2-2 2-1.106 0-2-.895-2-2 0-1.107.894-2 2-2z" fill="#eac6bb"/><path d="m13.5 57.5c1.094 0 2 .893 2 2 0 1.105-.906 2-2 2-1.106 0-2-.895-2-2 0-1.107.894-2 2-2z" fill="#eac6bb"/></g></svg>