<?xml version="1.0" encoding="utf-8"?>
<!-- Generator: Adobe Illustrator 23.0.1, SVG Export Plug-In . SVG Version: 6.00 Build 0)  -->
<svg xmlns="http://www.w3.org/2000/svg" xmlns:xlink="http://www.w3.org/1999/xlink" version="1.1" id="Layer_1" x="0px" y="0px" viewBox="0 0 64 64" style="enable-background:new 0 0 64 64;" xml:space="preserve" width="512" height="512">
<style type="text/css">
	.st0{fill:#FFE885;}
	.st1{fill:#F0DC78;}
	.st2{fill:#FFFA96;}
	.st3{fill:#FA8CB4;}
	.st4{fill:#E678A0;}
	.st5{fill:#FFA0C8;}
	.st6{fill:#DCC864;}
	.st7{fill:#AAD2FF;}
	.st8{fill:#96BEF0;}
	.st9{fill:#BEE6FF;}
	.st10{fill:#785AE6;}
	.st11{fill:#D2648C;}
	.st12{fill:#82AADC;}
	.st13{fill:#F0F0E6;}
	.st14{fill:#968CD2;}
	.st15{fill:#A2BAFF;}
	.st16{fill:#96AAF0;}
	.st17{fill:#B4C8FF;}
	.st18{fill:#A99BE0;}
	.st19{fill:#DCDCD2;}
	.st20{fill:#FFFFFA;}
	.st21{fill:#C8B450;}
	.st22{fill:#D2D2C8;}
	.st23{fill:#BEBEB4;}
	.st24{fill:#B4AAF0;}
	.st25{fill:#8D7BD4;}
	.st26{fill:#C8C8BE;}
	.st27{fill:#B4B4AA;}
	.st28{fill:#F0A0AA;}
	.st29{fill:#FFB4BE;}
	.st30{fill:#FFC8D2;}
	.st31{fill:#F09696;}
	.st32{fill:none;stroke:#785AE6;stroke-linecap:round;stroke-linejoin:round;stroke-miterlimit:10;}
	.st33{fill:#FFFFDC;}
	.st34{fill:#C8DCFF;}
	.st35{fill:#826EC8;}
	.st36{fill:#8296DC;}
	.st37{fill:#FFB4DC;}
	.st38{fill:#A2BAFF;stroke:#785AE6;stroke-linecap:round;stroke-linejoin:round;stroke-miterlimit:10;}
	.st39{fill:none;stroke:#785AE6;stroke-miterlimit:10;}
	.st40{fill:#C85A82;}
	.st41{fill:#FFD2DC;}
	.st42{fill:none;stroke:#8D7BD4;stroke-linecap:round;stroke-linejoin:round;stroke-miterlimit:10;}
</style>
<g>
	<path class="st1" d="M32,25.5c-0.552,0-1-0.448-1-1v-5c0-0.552,0.448-1,1-1s1,0.448,1,1v5C33,25.052,32.552,25.5,32,25.5z"/>
</g>
<g>
	<path class="st1" d="M39.158,14.5c-0.552,0-1-0.448-1-1s0.448-1,1-1c1.19,0,2.311-0.524,3.072-1.439l3.038-3.645   c0.149-0.179,0.231-0.407,0.231-0.64V6.474c0-0.551-0.449-1-1-1h-3.95c-0.552,0-1-0.448-1-1s0.448-1,1-1h3.95c1.654,0,3,1.346,3,3   v0.302c0,0.7-0.247,1.382-0.695,1.92l-3.038,3.645C42.625,13.713,40.944,14.5,39.158,14.5z"/>
</g>
<g>
	<g>
		<path class="st10" d="M39.158,15c-0.827,0-1.5-0.673-1.5-1.5s0.673-1.5,1.5-1.5c1.042,0,2.022-0.459,2.688-1.259l0.598-0.718    c0.177-0.212,0.492-0.241,0.705-0.064c0.212,0.177,0.241,0.492,0.064,0.705l-0.598,0.718C41.758,12.41,40.498,13,39.158,13    c-0.276,0-0.5,0.224-0.5,0.5s0.224,0.5,0.5,0.5c1.637,0,3.177-0.721,4.225-1.979l3.037-3.645C46.794,7.928,47,7.36,47,6.776V6.474    c0-1.378-1.122-2.5-2.5-2.5h-3.95c-0.276,0-0.5,0.224-0.5,0.5s0.224,0.5,0.5,0.5h3.95c0.827,0,1.5,0.673,1.5,1.5v0.302    c0,0.35-0.124,0.691-0.348,0.96c-0.176,0.212-0.491,0.241-0.704,0.063c-0.212-0.177-0.241-0.492-0.063-0.704    C44.959,7.006,45,6.893,45,6.776V6.474c0-0.276-0.224-0.5-0.5-0.5h-3.95c-0.827,0-1.5-0.673-1.5-1.5s0.673-1.5,1.5-1.5h3.95    c1.93,0,3.5,1.57,3.5,3.5v0.302c0,0.817-0.288,1.613-0.812,2.241l-3.037,3.645C42.913,14.147,41.093,15,39.158,15z"/>
	</g>
</g>
<g>
	<path class="st1" d="M24.842,14.5c-1.786,0-3.466-0.787-4.609-2.159l-3.037-3.645c-0.449-0.538-0.695-1.22-0.695-1.92V6.474   c0-1.654,1.346-3,3-3h3.95c0.552,0,1,0.448,1,1s-0.448,1-1,1H19.5c-0.551,0-1,0.449-1,1v0.302c0,0.233,0.083,0.461,0.232,0.64   l3.037,3.645c0.762,0.915,1.882,1.439,3.073,1.439c0.552,0,1,0.448,1,1S25.394,14.5,24.842,14.5z"/>
</g>
<g>
	<g>
		<path class="st10" d="M32,26c-0.827,0-1.5-0.673-1.5-1.5v-5c0-0.827,0.673-1.5,1.5-1.5s1.5,0.673,1.5,1.5v5    C33.5,25.327,32.827,26,32,26z M32,19c-0.276,0-0.5,0.224-0.5,0.5v5c0,0.276,0.224,0.5,0.5,0.5s0.5-0.224,0.5-0.5v-5    C32.5,19.224,32.276,19,32,19z"/>
	</g>
</g>
<g>
	<g>
		<path class="st10" d="M24.842,15c-1.935,0-3.755-0.853-4.994-2.339l-3.037-3.644C16.288,8.389,16,7.593,16,6.776V6.474    c0-1.93,1.57-3.5,3.5-3.5h3.95c0.827,0,1.5,0.673,1.5,1.5s-0.673,1.5-1.5,1.5H19.5c-0.276,0-0.5,0.224-0.5,0.5v0.302    c0,0.117,0.041,0.23,0.116,0.32c0.177,0.212,0.148,0.527-0.063,0.704c-0.213,0.177-0.528,0.148-0.704-0.063    C18.124,7.467,18,7.126,18,6.776V6.474c0-0.827,0.673-1.5,1.5-1.5h3.95c0.276,0,0.5-0.224,0.5-0.5s-0.224-0.5-0.5-0.5H19.5    c-1.378,0-2.5,1.122-2.5,2.5v0.302c0,0.584,0.206,1.152,0.579,1.6l3.038,3.645C21.665,13.279,23.205,14,24.842,14    c0.276,0,0.5-0.224,0.5-0.5s-0.224-0.5-0.5-0.5c-1.34,0-2.6-0.59-3.457-1.62l-0.598-0.717c-0.177-0.212-0.148-0.528,0.064-0.705    c0.213-0.177,0.527-0.148,0.705,0.064l0.598,0.718C22.82,11.541,23.8,12,24.842,12c0.827,0,1.5,0.673,1.5,1.5S25.669,15,24.842,15    z"/>
	</g>
</g>
<path class="st0" d="M35.844,16.787L32,19.5l-3.844-2.713C25.237,14.726,23.5,11.374,23.5,7.8V1.5h17v6.3  C40.5,11.374,38.763,14.726,35.844,16.787z"/>
<path class="st1" d="M35.844,14.787l-3.267,2.306c-0.346,0.244-0.808,0.244-1.153,0l-3.267-2.306C25.237,12.726,23.5,9.374,23.5,5.8  v2c0,3.574,1.737,6.925,4.656,8.987L32,19.5l3.844-2.713c2.92-2.061,4.656-5.412,4.656-8.987v-2  C40.5,9.374,38.763,12.726,35.844,14.787z"/>
<rect x="23.5" y="1.5" class="st2" width="17" height="2"/>
<g>
	<path class="st10" d="M32,20c-0.101,0-0.202-0.03-0.288-0.091l-3.844-2.713C24.82,15.043,23,11.531,23,7.8V1.5   C23,1.224,23.224,1,23.5,1h17C40.776,1,41,1.224,41,1.5v6.3c0,3.731-1.82,7.243-4.868,9.396c0,0,0,0,0,0l-3.844,2.713   C32.202,19.97,32.101,20,32,20z M24,2v5.8c0,3.407,1.662,6.613,4.445,8.578L32,18.888l3.556-2.51h0C38.338,14.414,40,11.207,40,7.8   V2H24z M35.844,16.787h0.01H35.844z"/>
</g>
<path class="st0" d="M33.824,24.5h-3.648c-1.672,0-3.233,0.836-4.16,2.226L25.5,27.5h13l-0.516-0.774  C37.057,25.336,35.496,24.5,33.824,24.5z"/>
<path class="st1" d="M37.812,26.5H26.188c-0.057,0.076-0.119,0.147-0.172,0.227L25.5,27.5h13l-0.516-0.773  C37.931,26.647,37.869,26.576,37.812,26.5z"/>
<g>
	<path class="st10" d="M38.5,28h-13c-0.185,0-0.354-0.102-0.441-0.264s-0.077-0.36,0.025-0.513l0.516-0.773   C26.622,24.916,28.333,24,30.176,24h3.648c1.843,0,3.554,0.916,4.576,2.449l0.516,0.773c0.102,0.153,0.112,0.351,0.025,0.513   S38.685,28,38.5,28z M26.434,27h11.132c-0.837-1.252-2.235-2-3.742-2h-3.648C28.669,25,27.271,25.748,26.434,27z"/>
</g>
<rect x="1.5" y="53.5" class="st3" width="8" height="9"/>
<rect x="1.5" y="60.5" class="st4" width="8" height="2"/>
<rect x="1.5" y="53.5" class="st5" width="8" height="2"/>
<rect x="18.5" y="53.5" class="st3" width="8" height="9"/>
<rect x="18.5" y="60.5" class="st4" width="8" height="2"/>
<rect x="18.5" y="53.5" class="st5" width="8" height="2"/>
<g>
	<path class="st10" d="M9.5,63h-8C1.224,63,1,62.776,1,62.5v-9C1,53.224,1.224,53,1.5,53h8c0.276,0,0.5,0.224,0.5,0.5v9   C10,62.776,9.776,63,9.5,63z M2,62h7v-8H2V62z"/>
</g>
<rect x="10.5" y="33.5" class="st3" width="8" height="9"/>
<rect x="10.5" y="40.5" class="st4" width="8" height="2"/>
<rect x="10.5" y="33.5" class="st5" width="8" height="2"/>
<g>
	<path class="st10" d="M18.5,43h-8c-0.276,0-0.5-0.224-0.5-0.5v-9c0-0.276,0.224-0.5,0.5-0.5h8c0.276,0,0.5,0.224,0.5,0.5v9   C19,42.776,18.776,43,18.5,43z M11,42h7v-8h-7V42z"/>
</g>
<rect x="45.5" y="33.5" class="st7" width="8" height="9"/>
<rect x="37.5" y="53.5" class="st7" width="8" height="9"/>
<rect x="54.5" y="53.5" class="st7" width="8" height="9"/>
<rect x="37.5" y="60.5" class="st8" width="8" height="2"/>
<rect x="37.5" y="53.5" class="st9" width="8" height="2"/>
<rect x="54.5" y="60.5" class="st8" width="8" height="2"/>
<rect x="54.5" y="53.5" class="st9" width="8" height="2"/>
<rect x="45.5" y="40.5" class="st8" width="8" height="2"/>
<rect x="45.5" y="33.5" class="st9" width="8" height="2"/>
<g>
	<path class="st10" d="M53.5,43h-8c-0.276,0-0.5-0.224-0.5-0.5v-9c0-0.276,0.224-0.5,0.5-0.5h8c0.276,0,0.5,0.224,0.5,0.5v9   C54,42.776,53.776,43,53.5,43z M46,42h7v-8h-7V42z"/>
</g>
<g>
	<path class="st10" d="M26.5,63h-8c-0.276,0-0.5-0.224-0.5-0.5v-9c0-0.276,0.224-0.5,0.5-0.5h8c0.276,0,0.5,0.224,0.5,0.5v9   C27,62.776,26.776,63,26.5,63z M19,62h7v-8h-7V62z"/>
</g>
<g>
	<path class="st10" d="M45.5,63h-8c-0.276,0-0.5-0.224-0.5-0.5v-9c0-0.276,0.224-0.5,0.5-0.5h8c0.276,0,0.5,0.224,0.5,0.5v9   C46,62.776,45.776,63,45.5,63z M38,62h7v-8h-7V62z"/>
</g>
<g>
	<path class="st10" d="M62.5,63h-8c-0.276,0-0.5-0.224-0.5-0.5v-9c0-0.276,0.224-0.5,0.5-0.5h8c0.276,0,0.5,0.224,0.5,0.5v9   C63,62.776,62.776,63,62.5,63z M55,62h7v-8h-7V62z"/>
</g>
<g>
	<path class="st10" d="M22.5,51c-0.276,0-0.5-0.224-0.5-0.5V46H6v4.5C6,50.776,5.776,51,5.5,51S5,50.776,5,50.5v-5   C5,45.224,5.224,45,5.5,45h17c0.276,0,0.5,0.224,0.5,0.5v5C23,50.776,22.776,51,22.5,51z"/>
</g>
<g>
	<path class="st10" d="M49.5,30.5c-0.276,0-0.5-0.224-0.5-0.5v-4h-8.5c-0.276,0-0.5-0.224-0.5-0.5s0.224-0.5,0.5-0.5h9   c0.276,0,0.5,0.224,0.5,0.5V30C50,30.276,49.776,30.5,49.5,30.5z"/>
</g>
<g>
	<path class="st10" d="M14.5,30.5c-0.276,0-0.5-0.224-0.5-0.5v-4.5c0-0.276,0.224-0.5,0.5-0.5h9c0.276,0,0.5,0.224,0.5,0.5   S23.776,26,23.5,26H15v4C15,30.276,14.776,30.5,14.5,30.5z"/>
</g>
<g>
	<path class="st10" d="M57.5,51c-0.276,0-0.5-0.224-0.5-0.5V46H41v4.5c0,0.276-0.224,0.5-0.5,0.5S40,50.776,40,50.5v-5   c0-0.276,0.224-0.5,0.5-0.5h17c0.276,0,0.5,0.224,0.5,0.5v5C58,50.776,57.776,51,57.5,51z"/>
</g>
<g>
	<polygon class="st0" points="54,2 55.414,4.586 58,6 55.414,7.414 54,10 52.586,7.414 50,6 52.586,4.586  "/>
	<polygon class="st2" points="52.586,5.586 54,4 55.414,5.586 58,6 55.414,4.586 54,2 52.586,4.586 50,6  "/>
	<g>
		<path class="st10" d="M54,10.5c-0.183,0-0.351-0.1-0.438-0.26l-1.344-2.457L49.76,6.438C49.6,6.351,49.5,6.183,49.5,6    s0.1-0.351,0.26-0.438l2.457-1.344l1.344-2.457c0.175-0.321,0.702-0.321,0.877,0l1.344,2.457l2.457,1.344    C58.4,5.649,58.5,5.817,58.5,6s-0.1,0.351-0.26,0.438l-2.457,1.344l-1.344,2.457C54.351,10.4,54.183,10.5,54,10.5z M51.042,6    l1.784,0.976c0.084,0.046,0.153,0.115,0.199,0.199L54,8.958l0.976-1.784c0.046-0.084,0.115-0.153,0.199-0.199L56.958,6    l-1.784-0.976c-0.084-0.046-0.153-0.115-0.199-0.199L54,3.042l-0.976,1.784c-0.046,0.084-0.115,0.153-0.199,0.199L51.042,6z"/>
	</g>
</g>
<g>
	<polygon class="st0" points="10,12 11.414,14.586 14,16 11.414,17.414 10,20 8.586,17.414 6,16 8.586,14.586  "/>
	<polygon class="st2" points="8.586,15.586 10,14 11.414,15.586 14,16 11.414,14.586 10,12 8.586,14.586 6,16  "/>
	<g>
		<path class="st10" d="M10,20.5c-0.183,0-0.351-0.1-0.438-0.26l-1.344-2.457L5.76,16.438C5.6,16.351,5.5,16.183,5.5,16    s0.1-0.351,0.26-0.438l2.457-1.344l1.344-2.457c0.175-0.321,0.702-0.321,0.877,0l1.344,2.457l2.457,1.344    C14.4,15.649,14.5,15.817,14.5,16s-0.1,0.351-0.26,0.438l-2.457,1.344l-1.344,2.457C10.351,20.4,10.183,20.5,10,20.5z M7.042,16    l1.784,0.976c0.084,0.046,0.153,0.115,0.199,0.199L10,18.958l0.976-1.784c0.046-0.084,0.115-0.153,0.199-0.199L12.958,16    l-1.784-0.976c-0.084-0.046-0.153-0.115-0.199-0.199L10,13.042l-0.976,1.784c-0.046,0.084-0.115,0.153-0.199,0.199L7.042,16z"/>
	</g>
</g>
<path class="st7" d="M33.5,11.75H33v-6.5c0-0.404-0.244-0.769-0.617-0.924c-0.375-0.155-0.804-0.07-1.09,0.217l-1.5,1.5  c-0.391,0.391-0.391,1.023,0,1.414c0.328,0.327,0.824,0.38,1.207,0.159v4.134h-0.5c-0.552,0-1,0.448-1,1s0.448,1,1,1h3  c0.552,0,1-0.448,1-1S34.052,11.75,33.5,11.75z"/>
<g>
	<path class="st16" d="M33.5,14.25h-3c-0.827,0-1.5-0.673-1.5-1.5s0.673-1.5,1.5-1.5v-3c-0.388,0-0.772-0.151-1.061-0.438   c-0.585-0.585-0.585-1.537,0-2.122c0.195-0.195,0.512-0.195,0.707,0s0.195,0.512,0,0.707c-0.195,0.195-0.195,0.512,0,0.707   c0.159,0.159,0.407,0.192,0.604,0.08c0.154-0.089,0.345-0.089,0.5,0c0.155,0.089,0.25,0.254,0.25,0.433v4.134   c0,0.276-0.224,0.5-0.5,0.5h-0.5c-0.276,0-0.5,0.224-0.5,0.5s0.224,0.5,0.5,0.5h3c0.276,0,0.5-0.224,0.5-0.5s-0.224-0.5-0.5-0.5H33   c-0.276,0-0.5-0.224-0.5-0.5V7.986c0-0.276,0.224-0.5,0.5-0.5s0.5,0.224,0.5,0.5v3.264c0.827,0,1.5,0.673,1.5,1.5   S34.327,14.25,33.5,14.25z"/>
</g>
<g>
	<path class="st16" d="M33,6.3c-0.276,0-0.5-0.224-0.5-0.5V5.25c0-0.203-0.121-0.384-0.309-0.462   c-0.188-0.078-0.4-0.036-0.544,0.108c-0.194,0.196-0.51,0.197-0.707,0.001c-0.195-0.195-0.196-0.511-0.001-0.707   c0.43-0.431,1.07-0.561,1.635-0.326C33.137,4.097,33.5,4.641,33.5,5.25V5.8C33.5,6.077,33.276,6.3,33,6.3z"/>
</g>
</svg>
